<svg width="374" height="294" viewBox="0 0 374 294" fill="none" xmlns="http://www.w3.org/2000/svg">
<path d="M307.614 6.82834C295.92 2.4235 283.201 0 269.909 0H104.038C93.5997 0 83.5036 1.4854 74.0368 4.23655C31.2009 16.6814 0 54.9989 0 100.418V126.514V152.609C0 197.974 31.2009 236.349 74.0368 248.791C83.5628 251.542 93.6028 253.027 104.038 253.027H212.354L164.5 206.838L163.986 206.342L157.369 199.959L151.609 194.396C148.927 191.808 147.217 188.56 146.535 185.199C146.08 182.944 146.08 180.629 146.535 178.374C146.99 176.116 147.902 173.915 149.214 171.984C149.899 170.995 150.697 170.057 151.553 169.176L151.837 168.899C154.575 166.314 157.883 164.663 161.363 164.002C161.646 163.944 161.989 163.944 162.275 163.89H167.524H185.947H186.062H212.472C233.748 163.836 251.031 147.155 251.031 126.565C251.031 126.508 251.031 126.508 251.031 126.454C251.031 126.399 251.031 126.345 251.031 126.345C251.031 105.752 233.805 89.0741 212.472 89.017H186.062H185.947H121.265H120.58H103.066C99.2443 89.017 95.6525 87.9165 92.743 85.9892C90.8023 84.7234 89.0921 83.0696 87.7807 81.1453C86.4692 79.218 85.5004 77.1254 84.9864 74.7591C84.759 73.6015 84.5877 72.3928 84.5877 71.1811V70.7963C84.5877 67.107 85.7278 63.6944 87.7246 60.832C89.036 58.9047 90.7462 57.3081 92.687 55.9881C94.6837 54.7223 96.9048 53.7872 99.3034 53.2941C100.5 53.0746 101.755 52.9062 103.01 52.9062H186.003H212.809C240.586 52.9062 264.831 67.3867 277.949 88.9148C281.313 94.3659 283.936 100.31 285.705 106.588C285.705 106.642 285.761 106.808 285.761 106.862C286.331 108.792 286.73 110.774 287.188 112.755C287.531 114.46 287.817 116.168 287.989 117.93C288.045 118.257 288.045 118.645 288.101 118.976C288.387 121.399 288.556 123.877 288.556 126.412C288.556 128.886 288.384 131.364 288.101 133.844C288.045 134.172 288.045 134.557 287.989 134.89C287.817 136.652 287.534 138.357 287.188 140.068C286.789 142.046 286.335 144.031 285.761 145.958C285.705 146.066 285.705 146.124 285.705 146.235C283.936 152.51 281.313 158.4 277.949 163.905C264.772 185.433 240.586 199.914 212.809 199.914H210.186L265.171 252.985L298.938 285.578L307.664 294V246.16C346.506 231.569 374 195.178 374 152.567V126.469V100.373C373.95 57.8073 346.456 21.4169 307.614 6.82834Z" fill="#EE4037"/>
</svg>
